<svg aria-hidden="true" style="position:absolute;width:0;height:0" xmlns="http://www.w3.org/2000/svg" overflow="hidden"><defs><symbol id="icon-logo6" viewBox="0 0 63 32"><path d="M31.815 15.021a2.215 2.215 0 01-.406-1.423v-2.063c0-.632.134-1.113.403-1.442s.731-.492 1.386-.491c.615 0 1.052.14 1.31.42.282.357.419.794.387 1.234v.485h-1.101v-.491a2.67 2.67 0 00-.032-.481.471.471 0 00-.157-.285.602.602 0 00-.399-.111.644.644 0 00-.419.118.553.553 0 00-.182.315 2.492 2.492 0 00-.043.51v2.504c-.017.242.031.483.141.703.055.074.131.133.22.17s.187.051.284.039a.573.573 0 00.39-.113.513.513 0 00.164-.304c.026-.166.037-.334.034-.502v-.508h1.101v.464c.031.459-.103.915-.381 1.297-.253.306-.684.46-1.317.46s-1.112-.164-1.383-.504zM36.399 15.042c-.278-.321-.417-.789-.417-1.408v-2.17c0-.613.139-1.077.417-1.391s.743-.471 1.395-.47c.647 0 1.11.157 1.388.47.278.315.419.779.419 1.391v2.17c0 .613-.141 1.083-.424 1.406s-.743.485-1.383.485-1.114-.164-1.395-.483zm1.907-.52c.1-.201.145-.421.132-.642v-2.657a1.249 1.249 0 00-.13-.63c-.056-.076-.134-.136-.225-.173s-.192-.05-.29-.037c-.099-.013-.2 0-.291.037s-.17.097-.226.173c-.1.196-.146.413-.132.63v2.669a1.26 1.26 0 00.132.642c.064.068.143.122.232.159a.736.736 0 00.566 0 .672.672 0 00.232-.159v-.013zM40.925 9.666h1.185l.891 4.004.912-4.004h1.153l.116 5.779h-.852l-.091-4.016-.88 4.016h-.684l-.912-4.031-.084 4.031h-.861l.107-5.779zM46.511 9.666h1.846c1.064 0 1.595.547 1.595 1.641 0 1.048-.56 1.571-1.68 1.57h-.629v2.568h-1.139l.007-5.779zm1.577 2.47a.84.84 0 00.627-.183.982.982 0 00.164-.653 1.899 1.899 0 00-.055-.525.444.444 0 00-.228-.275 1.102 1.102 0 00-.508-.092h-.442v1.727h.442zM51.595 9.666h1.224l1.256 5.779h-1.062l-.248-1.332h-1.092l-.255 1.332H50.34l1.256-5.779zm1.046 3.777l-.426-2.426-.426 2.426h.852zM55.089 9.666h.798l1.527 3.296V9.666h.946v5.779h-.759l-1.536-3.441v3.441h-.978l.002-5.779zM60.575 13.241l-1.269-3.567h1.069l.775 2.291.727-2.291h1.046l-1.253 3.567v2.203h-1.094v-2.203zM33.575 17.971v.302h-.93v2.348h-.39v-2.348h-.934v-.302h2.254zM36.49 20.622h-.301a.123.123 0 01-.084-.025.135.135 0 01-.05-.061l-.269-.629h-1.29l-.269.629a.181.181 0 01-.041.071.127.127 0 01-.084.025h-.301l1.14-2.65h.397l1.153 2.64zm-1.887-.984h1.076l-.456-1.079a1.883 1.883 0 01-.084-.25l-.043.141-.041.111-.451 1.076zM38.454 20.362a1.1 1.1 0 00.396-.032c.056-.013.111-.029.164-.048.05-.019.1-.042.153-.065v-.596h-.456c-.011.001-.023-.001-.033-.005s-.02-.009-.028-.016c-.008-.006-.013-.013-.017-.022s-.006-.017-.005-.027v-.204h.884v1.016a1.577 1.577 0 01-.481.216 1.939 1.939 0 01-.285.055 3.375 3.375 0 01-.333.017 1.616 1.616 0 01-.574-.099 1.268 1.268 0 01-.855-1.247 1.445 1.445 0 01.103-.554c.066-.157.166-.3.294-.42.13-.119.285-.213.456-.275.195-.068.402-.101.611-.099.106 0 .212.008.317.023a1.451 1.451 0 01.499.172c.07.041.136.088.198.139l-.109.164c-.009.015-.021.028-.037.036s-.034.014-.052.014a.147.147 0 01-.071-.021 1.55 1.55 0 01-.112-.063.925.925 0 00-.153-.071 1.361 1.361 0 00-.21-.059 1.641 1.641 0 00-.289-.023c-.15-.002-.3.023-.44.073a.947.947 0 00-.335.21.925.925 0 00-.212.329 1.315 1.315 0 000 .884c.05.125.128.238.228.334a.953.953 0 00.333.21c.145.046.299.064.451.052zM42.087 20.32h1.244v.302h-1.625v-2.651h.39l-.009 2.348zM44.626 20.622h-.39v-2.651h.39v2.651zM46.076 17.984a.198.198 0 01.059.048l1.666 1.998a.737.737 0 010-.094v-1.975h.34v2.661h-.196a.172.172 0 01-.084-.015.231.231 0 01-.062-.05l-1.664-1.996v2.061h-.326v-2.651h.203c.022 0 .044.004.064.013zM51.01 17.971v.292h-1.381v.875h1.119v.281h-1.119v.905h1.381v.292h-1.782v-2.644h1.782zM10.171 1.603l17.305 4.524v15.854l-17.305-4.522V1.603zM9.061.252V18.23l19.522 5.106V5.36L9.061.252z"/><path d="M19.525 31.681L0 26.571V8.595l19.525 5.108v17.978z"/><path d="M9.385 1.4l17.079 4.468-7.263 6.69L2.12 8.088 9.386 1.4zM9.061.252L0 8.596l19.525 5.108 9.059-8.344L9.062.252zM20.623 30.67l7.961-7.332-7.961-2.084v9.416z"/></symbol><symbol id="icon-logo5" viewBox="0 0 40 32"><path d="M3.055 26.742c.156.195.24.438.236.688a1.092 1.092 0 01-.365.869 1.575 1.575 0 01-1.061.317H0v-4.361h1.827c.361-.024.718.078 1.012.29a.998.998 0 01.354.816c.011.241-.065.477-.212.667a.997.997 0 01-.556.341c.247.045.471.177.63.373zm-2.187-.658h.781a.736.736 0 00.496-.145.507.507 0 00.167-.426.526.526 0 00-.165-.426.75.75 0 00-.511-.147H.868v1.144zm1.354 1.672a.54.54 0 00.185-.443.56.56 0 00-.188-.448.803.803 0 00-.53-.158H.87v1.199h.83a.822.822 0 00.524-.151zM6.79 28.617l-1.016-1.704h-.382v1.704h-.874v-4.361h1.655c.417-.029.83.103 1.152.371a1.394 1.394 0 01.123 1.804 1.337 1.337 0 01-.789.443l1.082 1.743H6.79zm-1.399-2.299h.715c.497 0 .745-.22.745-.66a.641.641 0 00-.183-.49.771.771 0 00-.562-.177h-.724l.008 1.327zM11.568 27.739H9.826l-.308.878h-.917l1.6-4.312h.991l1.594 4.312h-.917l-.301-.878zm-.233-.66l-.637-1.841-.637 1.841h1.273zM17.55 28.617h-.868l-1.946-2.965v2.965h-.866v-4.361h.866l1.946 2.983v-2.983h.868v4.361zM22.502 27.573a1.877 1.877 0 01-.785.769 2.546 2.546 0 01-1.22.275h-1.545v-4.361h1.545c.422-.011.841.081 1.22.268.332.168.606.433.785.761a2.541 2.541 0 010 2.288zm-.993-.104a1.601 1.601 0 000-2.082 1.506 1.506 0 00-1.086-.371h-.603v2.823h.603a1.5 1.5 0 001.086-.371zM12.111 0s11.201 4.246 10.963 10.39v10.392S11.881 16.534 12.115 10.39L12.111 0zM33.054 18.349a15.301 15.301 0 017.117-2.633v-3.253a14.62 14.62 0 00-7.117 5.886z"/><path d="M31.783 19.329a15.237 15.237 0 018.388-7.548V2.407S24.219 8.455 24.557 17.204v14.795s.711-.271 1.829-.778c0-.473 0-.95.051-1.429a15.387 15.387 0 015.347-10.464z"/><path d="M30.266 24.825a15.35 15.35 0 01.558-3.029 14.323 14.323 0 00-3.378 8.937 46.367 46.367 0 003.068-1.623 15.355 15.355 0 01-.248-4.284zM30.9 24.878a14.705 14.705 0 00.197 3.879c4.358-2.618 9.255-6.664 9.066-11.553v-.426a14.276 14.276 0 00-8.292 3.89 14.648 14.648 0 00-.972 4.21z"/></symbol><symbol id="icon-logo4" viewBox="0 0 60 32"><path d="M9.23 9.548h-.002c-1.684 0-3.048 1.33-3.048 2.971v.002c0 1.641 1.365 2.971 3.048 2.971h.002c1.684 0 3.048-1.33 3.048-2.971v-.002c0-1.641-1.365-2.971-3.048-2.971zM31.73 8.599c-.005-2.279-.936-4.463-2.589-6.074S25.247.006 22.908.001c-2.339.004-4.581.911-6.235 2.523S14.087 6.32 14.083 8.6v12.566S31.728 19.251 31.73 8.602V8.6zM0 25.289c.004 1.586.652 3.105 1.803 4.226s2.709 1.753 4.336 1.758c1.627-.005 3.185-.636 4.336-1.757s1.799-2.64 1.803-4.225v-8.744S0 17.881 0 25.289zm6.139 1.567c-.318 0-.629-.092-.893-.264s-.47-.417-.592-.703-.154-.601-.091-.905c.062-.304.215-.583.44-.802s.511-.368.823-.429c.312-.06.635-.029.929.089s.545.319.721.577a1.537 1.537 0 01.15 1.471 1.585 1.585 0 01-.87.851c-.195.079-.405.12-.617.12v-.006zM18.671 25.884h-1.256v1.297h-.654v-3.174h2.067v.53h-1.413v.82h1.256v.528zm3.144-.218c0 .312-.055.587-.166.822s-.269.417-.475.545c-.205.128-.44.192-.706.192-.263 0-.498-.063-.704-.19s-.366-.307-.48-.541a1.867 1.867 0 01-.172-.811v-.157c0-.312.056-.587.168-.824a1.26 1.26 0 01.477-.547c.206-.128.442-.192.706-.192s.499.064.704.192c.206.126.366.309.477.547.113.237.17.511.17.822v.142zm-.663-.144c0-.333-.06-.586-.179-.759s-.289-.259-.51-.259a.582.582 0 00-.508.257c-.119.17-.18.42-.181.75v.155c0 .324.06.576.179.754s.291.268.515.268a.579.579 0 00.506-.257c.118-.173.177-.424.179-.754v-.155zm2.784.826a.331.331 0 00-.131-.283c-.087-.067-.244-.137-.471-.209a3.432 3.432 0 01-.539-.218c-.36-.195-.541-.457-.541-.787 0-.172.048-.324.144-.458a.945.945 0 01.416-.316c.182-.076.385-.113.61-.113.227 0 .429.041.606.124a.946.946 0 01.412.347c.099.15.148.32.148.51h-.654a.427.427 0 00-.137-.338c-.092-.081-.22-.122-.386-.122a.602.602 0 00-.373.102.317.317 0 00-.133.266c0 .103.052.19.155.259.105.07.258.135.46.196.372.112.643.251.813.416s.255.372.255.619a.767.767 0 01-.312.648c-.208.156-.488.233-.839.233-.244 0-.467-.044-.667-.133a1.07 1.07 0 01-.46-.368.945.945 0 01-.157-.541h.656c0 .35.209.525.628.525a.61.61 0 00.364-.094.313.313 0 00.131-.266zm3.491-1.812h-.972v2.645h-.654v-2.645h-.959v-.53h2.586v.53zm2.285 1.269h-1.256v.85h1.474v.525h-2.128v-3.174h2.124v.53h-1.469v.757h1.256v.512zm1.777.214h-.521v1.162h-.654v-3.174h1.179c.375 0 .664.084.868.251s.305.403.305.709a.973.973 0 01-.142.543.95.95 0 01-.425.344l.687 1.297v.03h-.702l-.595-1.162zm-.521-.53h.528c.164 0 .291-.041.382-.124.09-.084.135-.2.135-.347a.476.476 0 00-.129-.353c-.084-.086-.214-.129-.39-.129h-.525v.953zm3.963.574v1.118h-.654v-3.174h1.238c.238 0 .448.044.628.131a.964.964 0 01.419.373c.097.16.146.342.146.547 0 .311-.107.557-.321.737-.212.179-.507.268-.883.268h-.573zm0-.53h.584c.173 0 .305-.041.395-.122.092-.081.137-.198.137-.349 0-.156-.046-.281-.137-.377s-.218-.145-.379-.148h-.6v.996zm4.138.272h-1.256v.85h1.474v.525h-2.128v-3.174h2.124v.53h-1.469v.757h1.256v.512zm3.035-1.269h-.972v2.645h-.654v-2.645h-.959v-.53h2.586v.53zm2.285 1.269h-1.256v.85h1.474v.525h-2.128v-3.174h2.124v.53h-1.47v.757h1.256v.512zm1.777.214h-.521v1.162h-.654v-3.174h1.18c.375 0 .664.084.868.251s.305.403.305.709a.973.973 0 01-.142.543.95.95 0 01-.425.344l.687 1.297v.03h-.702l-.595-1.162zm-.521-.53h.528c.164 0 .291-.041.382-.124.09-.084.135-.2.135-.347a.476.476 0 00-.129-.353c-.084-.086-.214-.129-.39-.129h-.525v.953zm3.844.859a.331.331 0 00-.131-.283c-.087-.067-.244-.137-.471-.209a3.375 3.375 0 01-.538-.218c-.36-.195-.541-.457-.541-.787 0-.172.048-.324.144-.458a.945.945 0 01.416-.316c.182-.076.385-.113.61-.113.227 0 .429.041.606.124a.946.946 0 01.412.347c.099.15.148.32.148.51h-.654a.427.427 0 00-.137-.338c-.092-.081-.22-.122-.386-.122a.602.602 0 00-.373.102.317.317 0 00-.133.266c0 .103.052.19.155.259.105.07.258.135.46.196.372.112.643.251.813.416s.255.372.255.619a.767.767 0 01-.312.648c-.208.156-.488.233-.839.233-.244 0-.467-.044-.667-.133a1.07 1.07 0 01-.46-.368.945.945 0 01-.157-.541h.656c0 .35.209.525.628.525a.61.61 0 00.364-.094.313.313 0 00.131-.266z"/></symbol><symbol id="icon-facebook" viewBox="0 0 32 32"><path d="M21.329 5.313h2.921V.225C23.746.156 22.013 0 19.994 0c-4.212 0-7.097 2.649-7.097 7.519V12H8.249v5.688h4.648V32h5.699V17.689h4.46l.708-5.688h-5.169V8.082c.001-1.644.444-2.769 2.735-2.769z"/></symbol><symbol id="icon-instagram" viewBox="0 0 32 32"><path d="M31.969 9.408c-.075-1.7-.35-2.869-.744-3.882a7.806 7.806 0 00-1.851-2.838A7.867 7.867 0 0026.542.844C25.523.45 24.36.175 22.66.1 20.947.019 20.403 0 16.059 0s-4.888.019-6.595.094c-1.7.075-2.869.35-3.882.744a7.803 7.803 0 00-2.838 1.85A7.867 7.867 0 00.9 5.52C.506 6.539.231 7.702.156 9.402c-.081 1.713-.1 2.257-.1 6.601s.019 4.888.094 6.595c.075 1.7.35 2.869.744 3.882a7.895 7.895 0 001.85 2.838 7.867 7.867 0 002.832 1.844c1.019.394 2.182.669 3.882.744 1.706.075 2.25.094 6.595.094s4.888-.019 6.595-.094c1.7-.075 2.869-.35 3.882-.744a8.184 8.184 0 004.682-4.682c.394-1.019.669-2.182.744-3.882.075-1.707.094-2.251.094-6.595s-.006-4.888-.081-6.595zm-2.882 13.065c-.069 1.563-.331 2.407-.55 2.969a5.31 5.31 0 01-3.038 3.038c-.563.219-1.413.481-2.969.55-1.688.075-2.194.094-6.464.094s-4.782-.019-6.464-.094c-1.563-.069-2.407-.331-2.969-.55a4.926 4.926 0 01-1.838-1.194 4.974 4.974 0 01-1.194-1.838c-.219-.563-.481-1.413-.55-2.969-.075-1.688-.094-2.194-.094-6.464s.019-4.782.094-6.464c.069-1.563.331-2.407.55-2.969a4.868 4.868 0 011.2-1.838A4.974 4.974 0 016.639 3.55c.563-.219 1.413-.481 2.969-.55 1.688-.075 2.194-.094 6.464-.094 4.276 0 4.782.019 6.464.094 1.563.069 2.407.331 2.969.55a4.914 4.914 0 011.838 1.194 4.974 4.974 0 011.194 1.838c.219.563.481 1.413.55 2.969.075 1.688.094 2.194.094 6.464s-.019 4.77-.094 6.458z"/><path d="M16.059 7.783c-4.538 0-8.22 3.682-8.22 8.22s3.682 8.22 8.22 8.22c4.539 0 8.22-3.682 8.22-8.22s-3.682-8.22-8.22-8.22zm0 13.552a5.333 5.333 0 010-10.664 5.333 5.333 0 010 10.664zM26.524 7.458a1.919 1.919 0 11-3.838 0 1.919 1.919 0 013.838 0z"/></symbol><symbol id="icon-linkedin" viewBox="0 0 32 32"><path d="M31.992 32v-.001H32V20.263c0-5.741-1.236-10.164-7.948-10.164-3.227 0-5.392 1.771-6.276 3.449h-.093v-2.913h-6.364v21.364h6.627V21.42c0-2.785.528-5.479 3.977-5.479 3.399 0 3.449 3.179 3.449 5.657v10.401h6.62zM.528 10.636h6.635V32H.528V10.636zM3.843 0C1.722 0 0 1.721 0 3.843s1.721 3.879 3.843 3.879c2.121 0 3.843-1.757 3.843-3.879A3.846 3.846 0 003.843 0z"/></symbol><symbol id="icon-twitter" viewBox="0 0 32 32"><path d="M32 6.078c-1.19.522-2.458.868-3.78 1.036a6.523 6.523 0 002.886-3.626 13.11 13.11 0 01-4.16 1.588A6.574 6.574 0 0022.154 3c-3.632 0-6.556 2.948-6.556 6.562 0 .52.044 1.02.152 1.496-5.454-.266-10.28-2.88-13.522-6.862a6.605 6.605 0 00-.898 3.316 6.57 6.57 0 002.914 5.452 6.479 6.479 0 01-2.964-.808v.072c0 3.188 2.274 5.836 5.256 6.446a6.548 6.548 0 01-1.72.216 5.8 5.8 0 01-1.242-.112c.85 2.598 3.262 4.508 6.13 4.57a13.182 13.182 0 01-8.134 2.798c-.538 0-1.054-.024-1.57-.09A18.469 18.469 0 0010.064 29c12.072 0 18.672-10 18.672-18.668 0-.29-.01-.57-.024-.848A13.087 13.087 0 0032 6.078z"/></symbol><symbol id="icon-logo3" viewBox="0 0 32 32"><path d="M5.216 31.201a.093.093 0 01.061.025l.157.16a1.282 1.282 0 01-.441.303 1.622 1.622 0 01-.625.109 1.567 1.567 0 01-.588-.102 1.278 1.278 0 01-.443-.287 1.288 1.288 0 01-.286-.443 1.584 1.584 0 01-.1-.569 1.452 1.452 0 01.108-.57 1.31 1.31 0 01.774-.732c.193-.069.399-.104.606-.102a1.53 1.53 0 01.562.093c.155.062.298.149.421.256l-.131.171a.14.14 0 01-.033.031.09.09 0 01-.053.013.127.127 0 01-.057-.018l-.071-.045-.098-.058a1.012 1.012 0 00-.309-.101 1.3 1.3 0 00-.233-.018 1.19 1.19 0 00-.435.076.981.981 0 00-.341.214.982.982 0 00-.221.341 1.221 1.221 0 00-.08.45 1.26 1.26 0 00.08.458c.048.125.122.241.218.34a.9.9 0 00.325.211c.128.049.265.074.404.073.08.001.16-.004.239-.014a.909.909 0 00.518-.235.118.118 0 01.074-.029zM9.743 30.397c.002.193-.033.384-.106.565-.064.164-.165.313-.295.439s-.289.223-.463.288a1.79 1.79 0 01-1.191 0 1.288 1.288 0 01-.759-.732 1.565 1.565 0 010-1.131c.067-.165.168-.316.298-.445.131-.121.288-.216.461-.278a1.765 1.765 0 011.191 0 1.291 1.291 0 01.758.727c.073.182.108.375.106.568zm-.412 0a1.259 1.259 0 00-.075-.454.944.944 0 00-.21-.34.931.931 0 00-.331-.214 1.3 1.3 0 00-.866 0 .919.919 0 00-.543.554c-.1.296-.1.612 0 .908a.913.913 0 00.543.552c.279.097.587.097.866 0a.926.926 0 00.331-.212.963.963 0 00.21-.34c.053-.146.078-.3.075-.454zM12.831 30.873l.041.102c.016-.036.029-.069.045-.102.015-.034.032-.067.051-.1l1.001-1.687c.02-.029.037-.047.057-.053a.228.228 0 01.082-.009h.296v2.744h-.351V29.75v-.085a.737.737 0 010-.094l-1.007 1.711c-.013.026-.033.047-.059.062s-.056.023-.086.023h-.057a.16.16 0 01-.145-.086l-1.037-1.722v2.203h-.339v-2.739h.296a.25.25 0 01.082.009c.024.011.044.03.055.053l1.023 1.689c.02.031.037.064.051.098zM16.6 30.737v1.028h-.392v-2.74h.874c.165-.003.33.017.488.06a.931.931 0 01.345.171.7.7 0 01.196.269.883.883 0 01.067.35.818.818 0 01-.073.35.752.752 0 01-.212.274 1.003 1.003 0 01-.347.182 1.568 1.568 0 01-.472.064l-.474-.007zm0-.294h.474c.103.001.206-.013.304-.042a.641.641 0 00.22-.118.477.477 0 00.133-.182.559.559 0 00.047-.231.512.512 0 00-.176-.41.804.804 0 00-.527-.147h-.474v1.13zM21.867 31.769h-.31a.143.143 0 01-.086-.025.167.167 0 01-.051-.064l-.267-.663h-1.338l-.276.663a.147.147 0 01-.049.062.137.137 0 01-.088.027h-.31l1.176-2.744h.408l1.191 2.744zm-1.94-1.019h1.105l-.466-1.117a1.824 1.824 0 01-.088-.258l-.045.143a1.218 1.218 0 01-.043.116l-.463 1.115zM23.561 29.037a.176.176 0 01.059.049l1.715 2.069v-.096V29.025h.351v2.744h-.196a.182.182 0 01-.08-.016.208.208 0 01-.063-.051l-1.713-2.067a.737.737 0 010 .094v2.04h-.351v-2.744h.208a.168.168 0 01.07.013zM28.574 30.677v1.09h-.392v-1.09l-1.084-1.653h.351c.03-.002.06.007.084.024a.26.26 0 01.053.062l.678 1.066a1.113 1.113 0 01.12.243l.051-.118a.885.885 0 01.067-.125l.668-1.073a.28.28 0 01.051-.058.12.12 0 01.084-.027h.355l-1.086 1.66zM12.637 24.42c.171.02.343.036.517.051 2.644-1.096 4.881-2.89 6.431-5.158s2.344-4.909 2.284-7.592l-2.914-2.7c.593 2.857.315 5.811-.8 8.531s-3.026 5.098-5.518 6.869z"/><path d="M11.596 24.294l.078.015c2.662-1.765 4.692-4.229 5.827-7.074s1.322-5.94.538-8.885l-4.151-3.846c1.679 3.162 2.355 6.7 1.949 10.203s-1.877 6.828-4.242 9.587zM25.673 14.891c-.705 2.949-2.418 5.608-4.884 7.584a15.46 15.46 0 01-2.32 1.544c2.008-.547 3.853-1.514 5.394-2.826s2.736-2.935 3.493-4.743l-1.683-1.558z"/><path d="M25.013 14.457l-2.397-2.221c-.046 2.532-.823 5.007-2.25 7.167s-3.452 3.926-5.865 5.115h.012c.538 0 1.075-.03 1.609-.089 2.255-.853 4.247-2.21 5.799-3.95s2.614-3.809 3.093-6.022zM11.943 2.881L9.084.228c-2.556.915-4.754 2.524-6.307 4.617S.389 9.415.381 11.954c.01 2.806 1.029 5.529 2.896 7.737s4.476 3.777 7.414 4.457c2.622-2.961 4.158-6.619 4.383-10.444s-.871-7.616-3.131-10.824zM31.619 14.048c-.01-3.329-1.442-6.519-3.982-8.873s-5.983-3.681-9.575-3.69a14.346 14.346 0 00-4.854.837l17.506 16.222c.599-1.434.906-2.959.905-4.496z"/></symbol><symbol id="icon-logo2" viewBox="0 0 32 32"><path d="M14.14 1.806h.084c.156 0 .324.016.49.03.734.052 1.463.162 2.179.329V.403a12.97 12.97 0 00-2.25-.358 18.11 18.11 0 00-.909-.044h-.263a18.35 18.35 0 00-4.515.582 18.3 18.3 0 00-4.79 1.948v17.475a19.484 19.484 0 014.566-1.779 19.948 19.948 0 013.833-.588h.051c.216-.011.433-.017.655-.019v-1.79a21.155 21.155 0 00-4.982.662 23.81 23.81 0 00-1.731.513l-.623.211V3.591l.266-.128a17.409 17.409 0 016.471-1.651.523.523 0 01.056 0c.248-.013.497-.019.741-.019h.28c.129.003.258.006.388.014z"/><path d="M18.53 3.651a15.823 15.823 0 01-2.606-.211c-.277-.047-.55-.103-.814-.164v17.275a13.82 13.82 0 003.425.404 18.396 18.396 0 004.515-.581 18.362 18.362 0 004.792-1.948V1.263a19.562 19.562 0 01-4.564 1.781 19.388 19.388 0 01-4.747.609zm6.907.299l.623-.21v13.63l-.266.128a17.055 17.055 0 01-3.184 1.144c-1.331.344-2.7.522-4.074.527-.411 0-.819-.017-1.214-.052l-.427-.038V5.062l.497.033c.361.023.735.034 1.141.034a21.098 21.098 0 005.173-.663 26.802 26.802 0 001.731-.518zM5.377 25.977a.912.912 0 00-.693-.28 1.034 1.034 0 00-.4.075.91.91 0 00-.512.518 1.023 1.023 0 00-.072.387v2.335c-.006.165.026.328.092.479.055.12.135.226.234.313a.815.815 0 00.321.166c.114.032.231.048.349.049a.972.972 0 00.892-.61.951.951 0 00.075-.372v-.261h-.61v.208a.528.528 0 01-.036.208.359.359 0 01-.089.131.365.365 0 01-.128.067.425.425 0 01-.128.022.314.314 0 01-.286-.125.548.548 0 01-.081-.313v-2.177a.738.738 0 01.075-.349.31.31 0 01.299-.141.33.33 0 01.272.131c.068.09.104.2.101.313v.202h.604v-.238a1.093 1.093 0 00-.279-.737zM9.002 25.95a1.091 1.091 0 00-.694-.257 1.075 1.075 0 00-.364.066.961.961 0 00-.559.518 1.099 1.099 0 00-.089.452v2.239a1.08 1.08 0 00.089.459c.055.12.136.227.237.313a.94.94 0 00.322.197c.117.043.24.065.364.066s.248-.022.364-.066c.121-.044.233-.111.33-.197a.948.948 0 00.23-.313c.063-.144.093-.301.089-.459v-2.239a1.08 1.08 0 00-.089-.452 1.015 1.015 0 00-.23-.327zm-.285 3.019a.405.405 0 01-.121.324.445.445 0 01-.574 0 .397.397 0 01-.121-.324V26.73a.405.405 0 01.121-.324.445.445 0 01.574 0 .397.397 0 01.121.324v2.239zM13.765 29.969V25.73h-.587l-.771 2.244h-.011l-.777-2.244h-.581v4.239h.606V27.39h.011l.593 1.823h.302l.598-1.823h.011v2.579h.606zM17.205 26.027a.84.84 0 00-.343-.232 1.363 1.363 0 00-.439-.066h-.9v4.239h.604v-1.656h.311c.188.009.376-.031.545-.116a.882.882 0 00.332-.324 1.02 1.02 0 00.139-.369c.024-.16.035-.321.033-.482a2.421 2.421 0 00-.059-.606.898.898 0 00-.223-.39zm-.311 1.292a.547.547 0 01-.056.221.346.346 0 01-.156.149.619.619 0 01-.285.053h-.276v-1.441h.311a.578.578 0 01.272.053.349.349 0 01.142.157.62.62 0 01.053.236v.282c0 .099.006.2 0 .291h-.006zM20.066 25.73h-.495l-.934 4.239h.604l.177-.911h.823l.177.911h.604l-.957-4.239zm-.557 2.751l.297-1.537h.011l.296 1.537h-.604zM23.969 28.283h-.011l-.912-2.554h-.581v4.239h.604v-2.549h.012l.923 2.549h.568v-4.239h-.604v2.554zM27.66 25.73l-.486 1.685h-.012l-.486-1.685h-.64l.83 2.447v1.792h.604v-1.792l.83-2.447h-.64zM3.692 31.166h.291v.817h.198v-.817h.29v-.167h-.778v.167zM6.14 30.998l-.381.984h.21l.081-.224h.392l.084.224h.215l-.391-.984h-.21zm-.032.595l.134-.365.134.365h-.268zM8.559 31.62h.227v.127a.38.38 0 01-.233.083.244.244 0 01-.209-.093.411.411 0 01-.073-.257c0-.219.095-.329.283-.329a.206.206 0 01.222.157l.195-.038c-.042-.192-.181-.289-.417-.289a.495.495 0 00-.344.127.494.494 0 00-.141.379.532.532 0 00.126.369.477.477 0 00.374.144.59.59 0 00.417-.157v-.388h-.427v.166zM11.029 30.998h-.199v.984h.69v-.167h-.49v-.817zM13.118 30.998h-.199v.984h.199v-.984zM15.161 31.656l-.403-.657h-.193v.984h.185v-.643l.395.643h.198v-.984h-.182v.657zM17.007 31.549h.49v-.167h-.49v-.216h.528v-.167h-.727v.984h.747v-.167h-.548v-.266zM21.484 31.387h-.388v-.388h-.198v.984h.198v-.43h.388v.43h.198v-.984h-.198v.388zM23.342 31.549h.492v-.167h-.492v-.216h.529v-.167h-.727v.984h.746v-.167h-.548v-.266zM25.861 31.549c.171-.027.258-.117.258-.274a.236.236 0 00-.096-.219.553.553 0 00-.288-.058h-.417v.984h.198v-.412h.039a.261.261 0 01.123.022.21.21 0 01.07.072l.215.313h.237l-.12-.192a.685.685 0 00-.218-.236zm-.2-.136h-.146v-.247h.156a.507.507 0 01.201.023c.014.013.026.029.033.046a.133.133 0 01-.005.111.128.128 0 01-.037.043.547.547 0 01-.201.023zM27.76 31.549h.49v-.167h-.49v-.216h.529v-.167h-.729v.984h.747v-.167h-.548v-.266z"/></symbol><symbol id="icon-logo1" viewBox="0 0 32 32"><path d="M5.224.267l4.772 4.394h13.313v12.258l4.772 4.394V.267H5.224z"/><path d="M1.306 4.476v20.445H23.51v-8.127L10.137 4.481l-8.831-.005zM19.28 21.931H4.819V8.181h1.022V21H19.28v.931zM7.7 28.769l.534-1.1h.446l-.778 1.467v.855h-.405v-.855l-.78-1.467h.448l.534 1.1zm2.293.681h-.899l-.188.54h-.419l.877-2.321h.362l.879 2.321h-.421l-.19-.54zm-.786-.325h.673l-.336-.963-.336.963zm2.376.239c0-.107.029-.206.088-.295.058-.09.174-.197.346-.321a1.491 1.491 0 01-.19-.29.576.576 0 01-.053-.231c0-.182.055-.325.166-.43s.259-.159.446-.159c.169 0 .307.05.415.15a.512.512 0 01.09.636.858.858 0 01-.241.242l-.158.115.448.529a.924.924 0 00.097-.426h.336c0 .286-.067.52-.201.703l.341.403h-.45l-.131-.155c-.166.124-.364.186-.593.186s-.413-.061-.552-.182a.609.609 0 01-.206-.477zm.768.349a.594.594 0 00.367-.131l-.507-.598-.049.035c-.128.097-.191.207-.191.332 0 .107.035.194.104.262s.162.1.277.1zm-.214-1.495c0 .089.055.201.164.336l.177-.121.049-.04a.286.286 0 00.099-.225.204.204 0 00-.069-.155.24.24 0 00-.174-.065c-.075 0-.136.025-.18.076s-.067.115-.067.193zm4.218 1.017c-.023.248-.115.441-.274.58-.159.138-.371.207-.636.207a.912.912 0 01-.489-.131c-.14-.088-.249-.213-.325-.375s-.116-.349-.12-.563v-.217c0-.219.039-.412.116-.579a.876.876 0 01.837-.522c.256 0 .462.07.619.209s.247.336.273.59h-.402c-.019-.167-.068-.287-.147-.36-.078-.074-.192-.112-.343-.112a.473.473 0 00-.405.193c-.094.128-.141.315-.143.563v.206c0 .251.045.442.134.574s.222.198.395.198c.158 0 .277-.036.357-.107s.13-.19.151-.356h.402zm2.214-.345c0 .227-.039.427-.118.599a.893.893 0 01-.338.395.933.933 0 01-.504.137.943.943 0 01-.504-.137.915.915 0 01-.341-.394c-.08-.17-.12-.366-.121-.588v-.131c0-.226.04-.426.12-.599a.905.905 0 01.34-.397c.147-.092.315-.139.504-.139s.357.046.502.137c.147.09.26.221.34.392.08.17.12.368.121.595v.129zm-.403-.121c0-.257-.049-.454-.147-.592a.476.476 0 00-.413-.206.479.479 0 00-.41.206c-.098.136-.148.329-.15.579v.134c0 .255.049.452.148.592.1.139.238.209.415.209a.47.47 0 00.411-.204c.097-.136.145-.335.145-.596v-.121z"/></symbol><symbol id="icon-astronaut" viewBox="0 0 32 32"><path fill="var(--color2, #2196f3)" d="M31.974 4.524a.534.534 0 00-.43-.363l-1.91-.278-.855-1.731c-.179-.365-.777-.365-.956 0l-.855 1.731-1.91.278a.535.535 0 00-.296.91l1.383 1.348-.326 1.903c-.034.2.048.402.212.522a.53.53 0 00.562.04l1.709-.899 1.709.899a.536.536 0 00.775-.563l-.326-1.903 1.383-1.348a.536.536 0 00.135-.547zm-2.463 1.327a.534.534 0 00-.153.472l.191 1.114-1-.526a.533.533 0 00-.498 0l-1.001.526.191-1.114a.534.534 0 00-.153-.472l-.81-.789 1.119-.163a.532.532 0 00.402-.292l.5-1.013.5 1.013a.535.535 0 00.402.292l1.119.163-.809.789zM26.133 20.522h-1.067v1.067h1.067v-1.067zM26.133 22.656h-1.067v1.067h1.067v-1.067zM27.2 21.589h-1.067v1.067H27.2v-1.067zM25.067 21.589H24v1.067h1.067v-1.067zM22.4 26.389h-1.067v1.067H22.4v-1.067zM22.4 28.522h-1.067v1.067H22.4v-1.067zM23.467 27.456H22.4v1.067h1.067v-1.067zM21.333 27.456h-1.067v1.067h1.067v-1.067zM16 24.256h-1.067v1.067H16v-1.067zM16 26.389h-1.067v1.067H16v-1.067zM17.067 25.322H16v1.067h1.067v-1.067zM14.933 25.322h-1.067v1.067h1.067v-1.067zM5.866 6.122H4.799v1.067h1.067V6.122zM5.866 8.255H4.799v1.067h1.067V8.255z"/><path fill="var(--color2, #2196f3)" d="M6.933 7.189H5.866v1.067h1.067V7.189zM4.8 7.189H3.733v1.067H4.8V7.189z"/><path fill="var(--color3, #212121)" d="M24.715 14.159a1.775 1.775 0 00-1.188-.705 1.778 1.778 0 00-1.34.352l-1.252.96-1.898 1.417-1.358-.541c2.421-1.086 4.114-3.508 4.114-6.32 0-3.823-3.123-6.933-6.961-6.933s-6.961 3.11-6.961 6.933a6.86 6.86 0 001.12 3.758l-2.764-.024h-.005c-.009 0-.015.004-.023.005a.515.515 0 00-.155.031l-.038.013c-.006.003-.013.003-.019.006l-3.233 1.596-.001.001-1.893.911a.397.397 0 00-.063.035 1.779 1.779 0 00-.598 2.295c.22.429.595.745 1.056.889a1.776 1.776 0 001.378-.128l1.388-.738 2.264-1.169 1.357-.008L2.2 22.211l-.002.001-1.339 1.333c-.316.315-.49.732-.49 1.178s.174.863.49 1.179c.325.323.752.485 1.179.485s.854-.162 1.18-.485l1.314-1.309 1.741-1.3.901.897-1.762 1.754-.002.001-1.339 1.333c-.316.315-.49.732-.49 1.178s.174.863.49 1.179c.325.323.753.485 1.18.485s.855-.162 1.18-.485l3.482-3.467.001-.002 1.01-1-.004-.004c.006-.006.015-.009.022-.015l5.166-5.658 3.471.494a.52.52 0 00.262-.033c.018-.006.033-.015.05-.023.019-.01.039-.015.058-.027l3.213-2.133c.012-.008.018-.021.029-.029.013-.01.029-.014.041-.026l1.271-1.191c.662-.62.753-1.635.212-2.362zM2.13 17.77a.714.714 0 01-.558.052.717.717 0 01-.213-1.26l1.314-.632.449 1.312-.992.527zm3.498-1.828l-1.548.8-.439-1.283 2.027-1.001-.04 1.484zm15.099-6.62a5.79 5.79 0 01-.599 2.559l-4.181-1.899a1.863 1.863 0 00-.788-1.388l1.464-4.86c2.378.756 4.105 2.974 4.105 5.588zm-11.789 0c0-3.235 2.644-5.867 5.894-5.867.253 0 .5.021.745.052l-1.432 4.754c-.019-.001-.037-.006-.057-.006-1.033 0-1.873.837-1.873 1.867s.84 1.867 1.873 1.867c.694 0 1.294-.383 1.618-.945l3.862 1.755a5.894 5.894 0 01-4.737 2.39c-3.25 0-5.894-2.632-5.894-5.867zm5.956.8c0 .441-.362.8-.806.8s-.806-.359-.806-.8c0-.441.362-.8.806-.8s.806.359.806.8zM2.465 25.146a.608.608 0 01-.854.001.592.592 0 010-.844l.962-.958.851.848-.959.955zm3.214 3.734a.608.608 0 01-.855.001.592.592 0 010-.844l.963-.959.852.848-.96.955zm3.481-3.469l-.002.001-1.765 1.76-.852-.848 1.763-1.755.002-.001c.04-.04.065-.088.09-.135.007-.014.02-.026.026-.04.017-.041.019-.085.026-.129.003-.025.014-.047.014-.073 0-.036-.013-.07-.02-.106-.006-.032-.006-.065-.019-.095a.55.55 0 00-.091-.138c-.01-.012-.014-.027-.025-.038h-.001l-.001-.002-1.607-1.6c-.017-.017-.039-.024-.058-.038a.507.507 0 00-.087-.058.515.515 0 00-.093-.033.507.507 0 00-.103-.02.5.5 0 00-.095.005.53.53 0 00-.104.02.477.477 0 00-.094.045c-.02.011-.042.015-.061.029L4.23 23.486l-.901-.897 2.399-2.386 4.361 4.289-.928.919zm6.819-7.017c-.015-.002-.03.004-.045.003a.556.556 0 00-.3.075.492.492 0 00-.083.061c-.013.011-.028.017-.04.029l-4.698 5.146-4.328-4.257 2.833-2.818a.534.534 0 00-.379-.911v-.001l-2.219.013.028-1.607 3.104.027a6.947 6.947 0 004.981 2.101c.437 0 .864-.045 1.279-.123.04.032.079.065.13.085l2.41.96.152.758.178.885-3.003-.427zm4.041.178l-.313-1.558 1.446-1.08.947 1.257-2.08 1.381zm3.754-2.831l-.838.785-.931-1.236.831-.637a.735.735 0 01.543-.143.718.718 0 01.48.284.713.713 0 01-.085.947z"/><path fill="var(--color3, #212121)" d="M13.602 18.544l-2.143-2.133a.534.534 0 00-.753 0l-2.142 2.133a.537.537 0 000 .756l2.142 2.133a.536.536 0 00.753 0l2.143-2.133a.535.535 0 000-.756zm-2.519 1.759l-1.387-1.381 1.387-1.381 1.387 1.381-1.387 1.381zM17.164 5.071l-.258 1.036c.071.018 1.738.452 1.738 2.149h1.067c0-2.017-1.666-2.965-2.547-3.185zM19.711 9.322h-1.067v1.067h1.067V9.322z"/></symbol><symbol id="icon-diagram" viewBox="0 0 32 32"><path fill="var(--color2, #2196f3)" d="M14.925 14.965h1.066v4.798h-1.066v-4.797zM19.19 17.097h1.066v2.665H19.19v-2.665zM10.661 18.696h1.066v1.066h-1.066v-1.066zM7.463 18.163h1.066v1.599H7.463v-1.599z"/><path fill="var(--color3, #212121)" d="M1.599 28.291h25.587a1.6 1.6 0 001.599-1.599V24.56a1.6 1.6 0 00-1.599-1.599h-.533V9.668L29.681 6.8a1.608 1.608 0 10-.746-.763L26.654 8.2V6.97a1.6 1.6 0 00-1.599-1.599H3.733A1.6 1.6 0 002.134 6.97v15.992h-.533a1.6 1.6 0 00-1.599 1.599v2.132a1.6 1.6 0 001.599 1.599zM30.384 4.837a.533.533 0 110 1.067.533.533 0 010-1.067zM3.198 6.969c0-.294.239-.533.533-.533h21.322c.294 0 .533.239.533.533v2.239l-1.066 1.013V8.035a.533.533 0 00-.533-.533H4.797a.533.533 0 00-.533.533v13.326c0 .294.239.533.533.533h19.19a.533.533 0 00.533-.533v-9.674l1.066-1.01v12.284H3.198V6.969zm4.798 6.929a1.598 1.598 0 101.107 2.749l1.853.93a.532.532 0 00.636-.123l3.939-4.431 3.872 2.901a.533.533 0 00.686-.039l3.365-3.188v8.131H5.33V8.568h18.124v2.66L19.683 14.8l-3.904-2.927a.533.533 0 00-.718.072l-3.993 4.493-1.493-.746c.011-.064.018-.129.02-.193A1.6 1.6 0 007.996 13.9zm.533 1.6a.533.533 0 11-1.067 0 .533.533 0 011.067 0zm3.198 8.528h5.331v.533a.533.533 0 01-.533.533h-4.264a.533.533 0 01-.533-.533v-.533zm-10.661.534c0-.294.239-.533.533-.533h9.062v.533a1.6 1.6 0 001.599 1.599h4.264a1.6 1.6 0 001.599-1.599v-.533h9.062c.294 0 .533.239.533.533v2.132a.533.533 0 01-.533.533H1.598a.533.533 0 01-.533-.533V24.56z"/></symbol><symbol id="icon-clock" viewBox="0 0 32 32"><path fill="var(--color3, #212121)" d="M31.297 15.301C31.295 6.849 24.442-.002 15.989 0S.686 6.855.688 15.308a15.304 15.304 0 0010.649 14.576.662.662 0 00.529-.065.637.637 0 00.283-.356l3.865-12.25a1.912 1.912 0 10-.84-3.635l-5.106-5.107a.637.637 0 00-.902.902l5.103 5.109a1.876 1.876 0 00.536 2.309l-3.683 11.673C3.844 25.783.118 17.71 2.799 10.432S13.553-.572 20.831 2.109s11.004 10.754 8.323 18.032a14.042 14.042 0 01-7.462 7.973l-.398-1.874a.638.638 0 00-1.048-.344l-3.837 3.426a.637.637 0 00.231 1.084l4.899 1.563a.638.638 0 00.819-.74l-.391-1.839a15.255 15.255 0 009.329-14.089zm-15.305-.637a.638.638 0 110 1.277.638.638 0 010-1.277zm2.101 14.864l2.184-1.948.603 2.84-2.787-.892z"/><path fill="var(--color2, #2196f3)" d="M15.354 3.185V4.46a.638.638 0 101.276 0V3.185a.638.638 0 00-1.276 0zM3.876 14.664a.638.638 0 000 1.276h1.275a.638.638 0 100-1.276H3.876zM28.108 15.939a.638.638 0 100-1.276h-1.275a.638.638 0 000 1.276h1.275z"/></symbol><symbol id="icon-antenna" viewBox="0 0 32 32"><path fill="var(--color3, #212121)" d="M30.773 22.098l-8.443-8.505.937-4.615c.242.094.499.144.758.146h.006a2.159 2.159 0 10-2.008-1.435l-4.96.605L8.972.161a.534.534 0 00-.377-.16.532.532 0 00-.373.155L6.709 1.66a.534.534 0 000 .754l.814.826a14.943 14.943 0 002.519 17.663.513.513 0 00.146.098c-.034.18-.051.364-.052.547v6.187h-6.4a2.67 2.67 0 00-2.667 2.667v1.067c0 .295.239.533.533.533h24.533a.533.533 0 00.533-.533v-1.067a2.67 2.67 0 00-2.667-2.667h-6.4v-2.742a15.09 15.09 0 003.049.32 14.854 14.854 0 007.04-1.783l.818.823a.534.534 0 00.377.16.532.532 0 00.373-.155l1.513-1.504a.534.534 0 000-.754zM23.28 6.233a1.066 1.066 0 11.752 1.822h-.003a1.067 1.067 0 01-.747-1.823h-.002zm-1.256 3.505l-.598 2.946-1.175-1.182 1.774-1.763zm-.605-.902l-1.92 1.909-1.485-1.493 3.405-.415zM24.004 28.8a1.6 1.6 0 011.6 1.6v.533H2.137V30.4a1.6 1.6 0 011.6-1.6h20.267zm-7.467-2.133v1.067h-5.333v-1.067h5.333zM11.204 25.6v-4.053c0-1.294 1.196-2.347 2.667-2.347s2.667 1.053 2.667 2.347V25.6h-5.333zm6.4-1.696v-2.357c0-1.882-1.675-3.413-3.733-3.413a3.8 3.8 0 00-3.281 1.786A13.87 13.87 0 018.311 4.033l18.602 18.708a13.818 13.818 0 01-9.309 1.163zm11.289-.684L7.836 2.039l.755-.752 7.935 7.98c.004 0 .006.007.01.01l13.115 13.191-.757.752z"/><path fill="var(--color2, #2196f3)" d="M13.876 20.267h-.005a1.6 1.6 0 10-.004 3.2h.005a1.6 1.6 0 10.004-3.2zm.373 1.978a.534.534 0 01-.752-.756.534.534 0 01.373-.155.532.532 0 01.373.911h.005z"/></symbol><symbol id="icon-smartphone" viewBox="0 0 32 32"><path d="M23.467.207H8.534c-1.765 0-3.2 1.303-3.2 2.905v25.181c0 1.602 1.435 2.905 3.2 2.905h14.933c1.765 0 3.2-1.303 3.2-2.905V3.112c0-1.602-1.435-2.905-3.2-2.905zM8.533 2.144h14.933c.589 0 1.067.434 1.067.969v20.338H7.466V3.113c0-.534.478-.969 1.067-.969zm14.934 27.118H8.534c-.589 0-1.067-.434-1.067-.968v-2.906h17.067v2.906c0 .534-.478.968-1.067.968z"/><path d="M10.354 26.64c.417.378.417.992 0 1.37s-1.092.378-1.508 0c-.417-.378-.417-.992 0-1.37s1.092-.378 1.508 0z"/></symbol><symbol id="icon-envelope" viewBox="0 0 32 32"><path d="M29 5.139H3c-1.654 0-3 1.222-3 2.724v16.343c0 1.502 1.346 2.724 3 2.724h26c1.654 0 3-1.222 3-2.724V7.863c0-1.502-1.346-2.724-3-2.724zm0 1.816c.136 0 .265.026.383.07L16 17.557 2.617 7.025c.118-.045.247-.07.383-.07h26zm0 18.159H3c-.552 0-1-.407-1-.908V8.944l13.345 10.501c.188.148.422.222.655.222s.467-.074.655-.222L30 8.944v15.262c0 .501-.448.908-1 .908z"/></symbol></defs></svg>